<?xml version="1.0" encoding="UTF-8"?>
<svg id="Layer_2" data-name="Layer 2" xmlns="http://www.w3.org/2000/svg" viewBox="0 0 116.3 96.28">
  <defs>
    <style>
      .cls-1 {
        fill: #fff;
      }
    </style>
  </defs>
  <g id="Layer_1-2" data-name="Layer 1">
    <g>
      <path class="cls-1" d="m6.89,13.73c1.91,0,3.52-.67,4.83-2.02,1.34-1.34,2.02-2.97,2.02-4.88s-.67-3.52-2.02-4.83c-1.34-1.34-2.97-2.02-4.88-2.02S3.36.67,2.02,2.02,0,4.95,0,6.8c0,1.94.67,3.58,2.02,4.92,1.34,1.34,2.97,2.02,4.88,2.02Z"/>
      <path class="cls-1" d="m105.7,25.78v25.36c0,4.38-.53,7.47-1.59,9.28-1.09,1.84-2.89,2.77-5.39,2.77-2.91,0-5.02-1.09-6.35-3.28-1.33-2.19-1.99-5.7-1.99-10.55v-23.58h-10.59v25.22c0,8.12-2.34,12.19-7.03,12.19-2.97,0-5.13-1.11-6.49-3.33-1.36-2.22-2.04-5.72-2.04-10.5v-6.14c0-12.47-5.14-18.7-15.42-18.7-5.66,0-10.14,2.25-13.45,6.75-3-4.5-7.08-6.75-12.23-6.75-2.31,0-4.23.39-5.77,1.17-1.44.75-3.17,2.19-5.2,4.31v-4.22H1.59v70.5h10.55v-48.42c0-4.78.68-8.28,2.04-10.5,1.36-2.22,3.52-3.33,6.49-3.33,4.69,0,7.03,4.06,7.03,12.19v25.22h10.59v-23.58c0-4.84.66-8.36,1.99-10.55,1.33-2.19,3.45-3.28,6.35-3.28,2.5,0,4.3.92,5.39,2.77,1.06,1.81,1.59,4.91,1.59,9.28v25.36h10.59v-4.22c2.03,2.12,3.77,3.56,5.2,4.31,1.53.78,3.45,1.17,5.77,1.17,5.16,0,9.23-2.25,12.23-6.75,3.31,4.5,7.8,6.75,13.45,6.75,10.28,0,15.42-6.23,15.42-18.7v-28.22h-10.59Z"/>
    </g>
  </g>
</svg>