<?xml version="1.0" encoding="utf-8"?>
<!-- Generator: Adobe Illustrator 27.5.0, SVG Export Plug-In . SVG Version: 6.00 Build 0)  -->
<svg version="1.1" id="Layer_2_00000104689535991973333700000016075149079441500599_"
	 xmlns="http://www.w3.org/2000/svg" xmlns:xlink="http://www.w3.org/1999/xlink" x="0px" y="0px" viewBox="0 0 116.3 96.3"
	 style="enable-background:new 0 0 116.3 96.3;" xml:space="preserve">
<style type="text/css">
	.st0{fill:#F27405;}
</style>
<g id="Layer_1-2">
	<g>
		<path class="st0" d="M6.9,13.7c1.9,0,3.5-0.7,4.8-2c1.3-1.3,2-3,2-4.9s-0.7-3.5-2-4.8c-1.3-1.3-3-2-4.9-2S3.4,0.7,2,2S0,4.9,0,6.8
			c0,1.9,0.7,3.6,2,4.9C3.4,13.1,5,13.7,6.9,13.7L6.9,13.7z"/>
		<path class="st0" d="M105.7,25.8v25.4c0,4.4-0.5,7.5-1.6,9.3c-1.1,1.8-2.9,2.8-5.4,2.8c-2.9,0-5-1.1-6.3-3.3s-2-5.7-2-10.5V25.8
			H79.8V51c0,8.1-2.3,12.2-7,12.2c-3,0-5.1-1.1-6.5-3.3c-1.4-2.2-2-5.7-2-10.5v-6.1c0-12.5-5.1-18.7-15.4-18.7
			c-5.7,0-10.1,2.2-13.5,6.8c-3-4.5-7.1-6.8-12.2-6.8c-2.3,0-4.2,0.4-5.8,1.2c-1.4,0.8-3.2,2.2-5.2,4.3v-4.2H1.6v70.5h10.6V47.9
			c0-4.8,0.7-8.3,2-10.5s3.5-3.3,6.5-3.3c4.7,0,7,4.1,7,12.2v25.2h10.6V47.9c0-4.8,0.7-8.4,2-10.5s3.5-3.3,6.3-3.3
			c2.5,0,4.3,0.9,5.4,2.8c1.1,1.8,1.6,4.9,1.6,9.3v25.4h10.6v-4.2c2,2.1,3.8,3.6,5.2,4.3c1.5,0.8,3.4,1.2,5.8,1.2
			c5.2,0,9.2-2.2,12.2-6.8c3.3,4.5,7.8,6.8,13.4,6.8c10.3,0,15.4-6.2,15.4-18.7V25.8L105.7,25.8L105.7,25.8z"/>
	</g>
</g>
</svg>
