<?xml version="1.0" encoding="UTF-8"?>
<svg id="Layer_2" data-name="Layer 2" xmlns="http://www.w3.org/2000/svg" viewBox="0 0 417.06 345.28">
  <defs>
    <style>
      .cls-1 {
        fill: #0e0e0e;
      }
    </style>
  </defs>
  <g id="Layer_1-2" data-name="Layer 1">
    <g>
      <path class="cls-1" d="m24.71,49.25c6.83,0,12.61-2.41,17.31-7.23,4.82-4.82,7.23-10.65,7.23-17.48s-2.41-12.61-7.23-17.31C37.21,2.41,31.38,0,24.54,0S12.05,2.41,7.23,7.23,0,17.76,0,24.37c0,6.95,2.41,12.83,7.23,17.65,4.82,4.82,10.65,7.23,17.48,7.23Z"/>
      <path class="cls-1" d="m379.07,92.46v90.94c0,15.69-1.91,26.78-5.72,33.28-3.92,6.61-10.37,9.92-19.33,9.92-10.42,0-18.02-3.92-22.78-11.77-4.76-7.84-7.14-20.45-7.14-37.82v-84.56h-37.99v90.44c0,29.14-8.41,43.71-25.22,43.71-10.65,0-18.41-3.98-23.28-11.94-4.87-7.96-7.31-20.51-7.31-37.66v-22.02c0-44.72-18.44-67.07-55.31-67.07-20.28,0-36.37,8.07-48.25,24.21-10.76-16.14-25.38-24.21-43.87-24.21-8.29,0-15.19,1.4-20.68,4.2-5.16,2.69-11.37,7.84-18.66,15.47v-15.13H5.72v252.83h37.82v-173.65c0-17.15,2.44-29.7,7.31-37.66,4.87-7.96,12.63-11.94,23.28-11.94,16.81,0,25.22,14.57,25.22,43.71v90.44h37.99v-84.56c0-17.37,2.38-29.98,7.14-37.82,4.76-7.84,12.36-11.77,22.78-11.77,8.97,0,15.41,3.31,19.33,9.92,3.81,6.5,5.72,17.59,5.72,33.28v90.94h37.99v-15.13c7.28,7.62,13.5,12.78,18.66,15.47,5.49,2.8,12.38,4.2,20.68,4.2,18.49,0,33.12-8.07,43.87-24.21,11.88,16.14,27.96,24.21,48.25,24.21,36.87,0,55.31-22.36,55.31-67.07v-101.2h-37.99Z"/>
    </g>
  </g>
</svg>